<svg xmlns="http://www.w3.org/2000/svg" viewBox="16.94 17.73 45.45 38.81"><g fill="none"><g clip-path="url(#SVGRJNxRbwH)"><path fill="#ff9a00" d="M39.76 48.01H27.047l-2.587 8.036a.65.65 0 0 1-.66.495h-6.44q-.551 0-.386-.605L27.982 24.23q.165-.495.33-1.128q.216-1.105.22-2.23a.34.34 0 0 1 .385-.385h8.752q.385 0 .44.276L50.604 55.99q.165.55-.33.55h-7.156a.51.51 0 0 1-.55-.385zm-10.733-6.936h8.697q-.33-1.1-.77-2.477q-.442-1.374-.936-2.944l-.991-3.138a105 105 0 0 1-.908-3.027q-.413-1.458-.743-2.67h-.055a45 45 0 0 1-1.156 4.404q-.771 2.476-1.569 5.063a136 136 0 0 1-1.569 4.79m29.007-14.752a4 4 0 0 1-3.027-1.211a4.36 4.36 0 0 1-1.156-3.137a4.04 4.04 0 0 1 1.238-3.055a4.25 4.25 0 0 1 3.055-1.184q1.982 0 3.11 1.184a4.25 4.25 0 0 1 1.129 3.055a4.3 4.3 0 0 1-1.184 3.137a4.22 4.22 0 0 1-3.165 1.21M54.236 55.99V29.68q0-.495.44-.496h6.77q.441 0 .441.495v26.31q0 .552-.44.551h-6.715q-.495 0-.496-.55"/></g><defs><clipPath id="SVGRJNxRbwH"><path fill="#fff" d="M0 0h82.051v80H0z"/></clipPath></defs></g></svg>